<svg width="14" height="14" viewBox="0 0 14 14" fill="none" xmlns="http://www.w3.org/2000/svg">
<path d="M11.5001 0.5H2.50012C1.96987 0.500579 1.4615 0.711479 1.08655 1.08643C0.711601 1.46137 0.500701 1.96974 0.500122 2.5V11.5C0.500701 12.0303 0.711601 12.5386 1.08655 12.9136C1.4615 13.2885 1.96987 13.4994 2.50012 13.5H11.5001C12.0304 13.4994 12.5387 13.2885 12.9137 12.9136C13.2886 12.5386 13.4995 12.0303 13.5001 11.5V2.5C13.4995 1.96974 13.2886 1.46137 12.9137 1.08643C12.5387 0.711479 12.0304 0.500579 11.5001 0.5ZM10.3829 4.82156L6.18293 9.82156C6.13686 9.87644 6.07954 9.92077 6.01484 9.95156C5.95014 9.98234 5.87958 9.99886 5.80793 10H5.7995C5.72941 9.99997 5.66012 9.98522 5.59611 9.95668C5.5321 9.92815 5.4748 9.88648 5.42793 9.83437L3.62793 7.83437C3.58222 7.78589 3.54666 7.72875 3.52334 7.66633C3.50003 7.60391 3.48942 7.53745 3.49215 7.47087C3.49489 7.40429 3.5109 7.33892 3.53926 7.27862C3.56761 7.21831 3.60774 7.16429 3.65727 7.11971C3.7068 7.07513 3.76475 7.04091 3.8277 7.01905C3.89065 6.99719 3.95733 6.98813 4.02383 6.9924C4.09033 6.99668 4.1553 7.01421 4.21493 7.04396C4.27456 7.0737 4.32764 7.11507 4.37106 7.16562L5.78637 8.73812L9.61731 4.17844C9.70324 4.07909 9.82482 4.01754 9.95576 4.00711C10.0867 3.99667 10.2165 4.03819 10.3171 4.12268C10.4177 4.20716 10.4809 4.32784 10.4933 4.45862C10.5056 4.5894 10.466 4.71977 10.3829 4.82156Z" fill="black"/>
</svg>
